<?xml version="1.0" standalone="no"?>
<!DOCTYPE svg PUBLIC "-//W3C//DTD SVG 20010904//EN"
 "http://www.w3.org/TR/2001/REC-SVG-20010904/DTD/svg10.dtd">
<svg version="1.0" xmlns="http://www.w3.org/2000/svg"
 width="225.000000pt" height="225.000000pt" viewBox="0 0 225.000000 225.000000"
 preserveAspectRatio="xMidYMid meet">

<g transform="translate(0.000000,225.000000) scale(0.100000,-0.100000)"
fill="#000000" stroke="none">
<path d="M727 1913 c-4 -3 -7 -50 -7 -103 l0 -97 -40 -12 c-58 -17 -107 -64
-127 -122 l-18 -49 -98 0 c-78 0 -99 -3 -103 -15 -13 -34 15 -45 112 -45 l94
0 0 -95 0 -95 -100 0 c-81 0 -102 -3 -106 -15 -13 -34 15 -45 112 -45 l94 0 0
-95 0 -95 -94 0 c-97 0 -125 -11 -112 -45 4 -12 25 -15 106 -15 l100 0 0 -95
0 -95 -94 0 c-97 0 -125 -11 -112 -45 4 -12 25 -15 104 -15 l99 0 12 -40 c17
-58 64 -107 122 -127 l49 -18 0 -98 c0 -78 3 -99 15 -103 34 -13 45 15 45 112
l0 94 95 0 94 0 3 -102 c3 -91 5 -103 22 -106 29 -6 36 16 36 116 l0 92 95 0
95 0 0 -92 c0 -100 7 -122 36 -116 17 3 19 15 22 106 l3 102 94 0 95 0 0 -94
c0 -97 11 -125 45 -112 12 4 15 25 15 103 l0 98 49 18 c58 20 105 69 122 127
l12 40 99 0 c79 0 100 3 104 15 13 34 -15 45 -112 45 l-94 0 0 95 0 95 100 0
c81 0 102 3 106 15 13 34 -15 45 -112 45 l-94 0 0 95 0 95 94 0 c97 0 125 11
112 45 -4 12 -25 15 -106 15 l-100 0 0 95 0 95 94 0 c97 0 125 11 112 45 -4
12 -25 15 -103 15 l-98 0 -18 49 c-20 58 -69 105 -127 122 l-40 12 0 99 c0 79
-3 100 -15 104 -34 13 -45 -15 -45 -112 l0 -94 -95 0 -94 0 -3 102 c-3 91 -5
103 -22 106 -29 6 -36 -16 -36 -115 l0 -93 -95 0 -95 0 0 93 c0 99 -7 121 -36
115 -17 -3 -19 -15 -22 -106 l-3 -102 -94 0 -95 0 0 93 c0 91 -8 117 -35 117
-7 0 -15 -3 -18 -7z m843 -275 c33 -17 51 -35 68 -68 22 -44 22 -49 22 -445 0
-396 0 -401 -22 -445 -17 -33 -35 -51 -68 -67 -44 -23 -49 -23 -445 -23 -396
0 -401 0 -445 23 -33 16 -51 34 -67 67 -23 44 -23 49 -23 445 0 396 0 401 23
445 16 33 34 51 67 68 44 22 49 22 445 22 396 0 401 0 445 -22z"/>
<path d="M742 1555 c-59 -26 -62 -44 -62 -430 0 -389 2 -404 64 -430 52 -22
710 -22 762 0 62 26 64 41 64 430 0 389 -2 404 -64 430 -51 22 -715 21 -764 0z
m752 -61 c14 -13 16 -61 16 -369 0 -308 -2 -356 -16 -369 -13 -14 -61 -16
-369 -16 -308 0 -356 2 -369 16 -14 13 -16 61 -16 369 0 308 2 356 16 369 13
14 61 16 369 16 308 0 356 -2 369 -16z"/>
<path d="M985 1296 c-21 -31 -115 -314 -115 -344 0 -18 5 -23 22 -20 16 2 27
16 39 48 l17 45 68 0 68 0 14 -48 c11 -41 17 -48 35 -45 18 2 22 9 20 33 -1
17 -3 46 -3 65 -1 19 -8 42 -15 50 -7 8 -25 53 -40 100 -37 113 -51 140 -75
140 -11 0 -27 -11 -35 -24z m71 -185 c6 -31 6 -31 -40 -31 -25 0 -46 4 -46 8
0 4 10 37 22 73 l22 64 18 -42 c10 -23 21 -56 24 -72z"/>
<path d="M1192 1311 c-8 -4 -12 -17 -10 -27 2 -14 13 -20 41 -22 l37 -3 0 -93
c0 -51 -3 -114 -6 -140 -6 -44 -8 -46 -40 -46 -38 0 -51 -14 -34 -35 9 -11 36
-15 107 -15 92 0 94 1 91 23 -2 17 -11 23 -35 25 -32 3 -33 5 -33 45 0 23 3
86 7 139 6 95 6 97 32 100 20 2 26 9 26 28 0 25 -2 25 -85 28 -47 1 -91 -2
-98 -7z"/>
</g>
</svg>
